PathFileType	4	(X/Y/Z)	Patient4_TMGait_0pt4_01_left_38.trc.trc
DataRate	CameraRate	NumFrames	NumMarkers	Units	OrigDataRate	OrigDataStartFrame	OrigNumFrames
76.923076923077	76.923076923077	6	33	mm	76.923076923077	71	       141
Frame#	Time	Sacral			L.Shoulder			Chest			R.Shoulder			Neck			R.ASIS			L.ASIS			R.Thigh.Superior			R.Thigh.Lateral			R.Thigh.Inferior			R.Patella			L.Thigh.Superior			L.Thigh.Lateral			L.Thigh.Inferior			L.Patella			L.Shank.Superior			L.Shank.Lateral			L.Shank.Inferior			R.Shank.Superior			R.Shank.Lateral			R.Shank.Inferior			R.Heel			R.Midfoot.Superior			R.Midfoot.Lateral			R.Toe			L.Heel			L.Midfoot.Lateral			L.Midfoot.Superior			L.Toe			L.Elbow			L.Wrist			R.Elbow			R.Wrist			
		X1	Y1	Z1	X2	Y2	Z2	X3	Y3	Z3	X4	Y4	Z4	X5	Y5	Z5	X6	Y6	Z6	X7	Y7	Z7	X8	Y8	Z8	X9	Y9	Z9	X10	Y10	Z10	X11	Y11	Z11	X12	Y12	Z12	X13	Y13	Z13	X14	Y14	Z14	X15	Y15	Z15	X16	Y16	Z16	X17	Y17	Z17	X18	Y18	Z18	X19	Y19	Z19	X20	Y20	Z20	X21	Y21	Z21	X22	Y22	Z22	X23	Y23	Z23	X24	Y24	Z24	X25	Y25	Z25	X26	Y26	Z26	X27	Y27	Z27	X28	Y28	Z28	X29	Y29	Z29	X30	Y30	Z30	X31	Y31	Z31	X32	Y32	Z32	X33	Y33	Z33	

71	48.470000000000	810.005346311014	1005.933834283538	431.828705994902	1021.620601315069	1434.143402439857	264.046458145577	1101.212430311390	1364.796500792343	436.908996078858	996.280846603460	1440.070938330472	598.397431929339	986.581462989869	1495.373433169541	418.561139924592	1029.666476786666	946.067052784082	569.820849317062	1036.671208644379	960.979623131235	294.405316755983	1100.442511155455	765.944824299720	543.193542515160	1052.253727150441	647.558539996150	617.324143603182	1137.732527469627	605.467184170245	536.726261548713	1168.078620305073	521.753589266054	555.233162165758	1047.737055851123	734.383949879020	325.312650024568	940.146923282093	633.873135803195	257.732552455109	1001.871264677896	544.575937202914	325.726866915189	988.541033879140	479.343656686312	336.116470108862	958.795919136290	410.591936248998	326.812464001629	862.631230499739	302.911497712531	275.422862606331	900.036255582739	189.186355268884	349.622979501238	1146.333334028029	433.246482625917	566.517421791315	1086.873228771384	324.633215727150	633.495555331258	1148.214838000438	233.182902968159	581.471512410567	1042.395949258482	51.780227391898	557.118824147672	1208.930430609667	118.606658254685	596.912826372369	1125.881347867395	47.747400288718	631.772390126928	1330.805460222817	74.651577110135	624.551094383549	763.506382842359	39.110000676190	393.564617065982	835.094994774977	35.442502012423	310.947666737237	919.578452722306	95.819902134909	336.417686766260	1047.268813147361	41.209455455935	303.843767274856	1072.105952304385	1097.920241740719	121.177087760378	1305.069191216713	979.502010250195	134.158078166280	849.254896604185	1124.795359310096	699.849248216478	827.772950819025	864.583036944709	714.708158833360	
72	48.483000000000	811.217201608602	1005.038090208366	433.050114922995	1022.783245464772	1433.410535757875	265.910852416777	1102.000468590429	1364.043312942413	438.924536745005	996.622863043361	1439.207838760471	600.186364305621	987.264025909148	1494.567238041743	420.342315269995	1030.611915614705	945.142159896901	571.576662173862	1038.024660367890	960.184831154995	296.073237417593	1099.355826937550	763.112004024070	545.670423194932	1048.743485415701	644.939134870959	618.688446698122	1134.193478668509	602.510332040821	538.293923711039	1163.458768165561	520.058298592652	555.545428152446	1047.145604993629	733.134582318520	326.545746708921	938.518312883157	633.628076945995	258.678181784653	999.278490049623	543.736856073054	326.562033694152	985.443065343734	478.571122895932	336.722027356156	955.258955785857	410.027309244747	327.371635672144	858.405262030721	302.982190454905	275.787716621768	895.298295782832	188.892199480955	349.748052270039	1144.018157108413	431.559433306911	566.969233278845	1087.040285240496	321.209226800114	633.434528123808	1150.874642995450	231.446001060067	581.200788231472	1049.571128472799	47.848508129733	556.246575716014	1214.827456661744	117.429095978609	596.022656059094	1133.104999698848	45.311948709067	630.906703375898	1337.589946812721	75.888431925277	623.666998448785	758.270871143448	39.068889903815	393.560340181932	829.839821549294	35.410843769905	310.935935606009	914.303927009523	95.775035024210	336.438512641877	1041.997439638537	41.160539642655	303.832629041994	1074.227125143249	1096.988412604027	123.946161306470	1308.264811502391	981.053346943126	137.933781662390	849.676282745041	1123.536222083445	700.578678395494	828.630178419946	863.222485753658	714.764605006196	
73	48.496000000000	812.606177192360	1004.003726059953	434.561131808868	1023.761352119362	1432.689462706090	267.959053969826	1102.772237429585	1363.318677709901	441.053199051768	996.996505911920	1438.247727749681	602.179757374753	987.848412845799	1493.711038329882	422.341378423177	1031.868262986789	944.175350383195	573.394269518137	1039.504231618712	959.363744753049	297.848950452941	1098.979131105227	760.506413861512	548.110084137305	1046.033501961851	642.416776101554	619.862938893371	1131.552601307870	599.852955165707	539.712788810969	1159.500007598258	518.218444292223	555.794982297558	1046.828378922704	731.838439033415	327.894998104959	937.188941266399	633.300515634253	259.817618179576	997.093446049434	542.835691544704	327.549291615203	982.776646621342	477.633836661935	337.482356633045	952.059716462222	409.327838918512	328.073035029011	854.356862950130	303.045993040417	276.276588686370	890.645467446311	188.520246585484	349.933149150084	1141.702785246476	429.640205316189	567.350136700936	1086.081679494969	318.116647296323	632.992381979935	1151.733411585959	229.594143358259	580.742799353799	1053.466720800204	45.048224627206	554.803710232455	1217.818453801044	115.762655718744	595.047201181020	1136.724101169419	43.354764098655	629.764048286467	1340.927351736830	75.614877521492	623.105379919045	753.021580263930	38.957463496759	393.561169146959	824.580833471628	35.341133513331	310.935550465566	909.024022510033	95.728110400313	336.465295414890	1036.735479849940	41.107490652812	303.814798421760	1076.067146935384	1096.038102663297	126.878974953950	1310.850760346207	981.928738204912	141.860970748405	850.855315664937	1121.829688416945	701.706172798404	831.033618715293	861.357521730972	715.191565017658	
74	48.509000000000	814.152392631901	1002.845400482824	436.352577224050	1024.562508658424	1431.980002545341	270.193484026592	1103.532849515171	1362.623787394808	443.302383164495	997.402413367056	1437.194270855009	604.383258892381	988.342958832136	1492.809662968793	424.562522857637	1033.416648265323	943.171632222536	575.278462161687	1041.105243409375	958.521830171313	299.738742806604	1099.356557443401	758.176793273942	550.470874077649	1044.180377349046	640.036807238358	620.829251121611	1129.900081991061	597.543077357011	541.002430547594	1156.319490331854	516.271185218061	556.010326558961	1046.821851237146	730.506353279401	329.365347221965	936.218900091260	632.869586677457	261.159305395917	995.408130348745	541.854945278888	328.689407097480	980.651026751877	476.494001721808	338.388156805543	949.274807769008	408.466668605318	328.914364307805	850.533141964694	303.102123834676	276.898468556702	886.097506824392	188.060217497818	350.177664201256	1139.527619455590	427.517070654812	567.660292478136	1084.228917591102	315.326122676521	632.281348906964	1150.995393043756	227.573947877898	580.135987394159	1054.273894493846	43.195510324573	552.942018093802	1218.126490331614	113.600297814702	594.031490745741	1137.007325517898	41.769270983971	628.457232185812	1341.138694042592	73.912070156957	622.850757816343	747.753472496127	38.778261591932	393.562709849592	819.319220186935	35.225370186293	310.946951719373	903.745700055200	95.675956267379	336.492041902219	1031.491882958109	41.046152914005	303.785866741236	1077.604782144727	1095.075511731515	129.940525659803	1312.830326006335	982.136687343422	145.905379396422	852.750206195149	1119.701641317727	703.220752510451	834.927098170229	859.024953791693	716.005151360057	
75	48.522000000000	815.829795704997	1001.589300478570	438.408512803152	1025.204670288169	1431.286720787110	272.614274749719	1104.291051284910	1361.961326523900	445.678402615580	997.849277077890	1436.060400248382	606.800013835884	988.765992235276	1491.877473114397	427.007084837208	1035.227509844952	942.146557616100	577.234786767210	1042.810447639798	957.671317516705	301.746517822655	1100.477708856813	756.151416297571	552.719601807205	1043.189158072423	637.847702721608	621.604666231931	1129.248268094816	595.599144400585	542.195426515596	1153.975365734265	514.262981194411	556.221459302623	1047.158316929141	729.160443623229	330.949611351574	935.669402627001	632.319539167904	262.704998165987	994.323934431010	540.784693688062	329.971533848982	979.190180822591	475.121877125789	339.413022242472	946.987805223790	407.426117325822	329.882207026752	846.989996149073	303.162088872936	277.657645026794	881.682466042997	187.514237897082	350.473653513062	1137.618082734928	425.249574104885	567.909632247249	1081.791178711572	312.825268843914	631.453112047660	1148.969403276566	225.389363993736	579.434743428393	1052.397582670220	42.098373739254	550.863997995666	1216.142701869274	111.036570835694	593.022417101953	1134.455974846981	40.480038509485	627.114508666553	1338.733863788362	71.030510990120	622.840435662714	742.465003948720	38.559865767916	393.558134531545	814.059082661812	35.066452435097	310.969095482598	898.484584891388	95.616220306151	336.508329560412	1026.277254469677	40.970685496453	303.740395162278	1078.816063695818	1094.103967417494	133.104395171500	1314.199627304966	981.688476798310	150.025117838225	855.325401861414	1117.191207666202	705.100333034955	840.247408406856	856.282437821834	717.216426208288	
76	48.535000000000	817.607681179363	1000.274321045229	440.706829295776	1025.714042522540	1430.622547502173	275.218004004065	1105.057124865279	1361.338954165741	448.184806519728	998.351701644780	1434.871153239608	609.428939712553	989.143420871283	1490.940872667006	429.672010086966	1037.260907807250	941.128711450206	579.268935612890	1044.590378098904	956.833625402241	303.873509680706	1102.276121974939	754.442428420514	554.835372683923	1043.019240729919	635.902413440686	622.242451788102	1129.528888869505	594.015203884360	543.330023630764	1152.465727353421	512.253483966239	556.462501458021	1047.863762318287	727.834486136174	332.629676986053	935.602430072565	631.643631733912	264.448908122877	993.949594855331	539.626984583930	331.373706952947	978.528368956866	473.502245818244	340.514309427128	945.288924169819	406.202699345633	330.951192641083	843.794225523631	303.254557067000	278.551740608221	877.440007721154	186.902620769979	350.804694130639	1136.071588289886	422.925874817607	568.121952706753	1079.109688337486	310.619937795944	630.676136936198	1146.029955575179	223.098999756124	578.705004973983	1048.402223970724	41.570303085071	548.787338272494	1212.376281676104	108.251330516438	592.068172612616	1129.733998785159	39.440899623295	625.860561485476	1334.348032176961	67.348052361504	622.990525084161	737.161496660266	38.367281322836	393.537859836918	808.808603617049	34.885191030938	310.998703947687	893.268066358147	95.549493595464	336.498726150155	1021.102553322244	40.873534943774	303.672551500240	1079.674651009864	1093.127493349263	136.355500177147	1314.944814074185	980.595351097994	154.171939073079	858.555692511095	1114.351258458539	707.314541710661	846.928519352523	853.207701999817	718.831005744835	
